<?xml version="1.0" encoding="utf-8"?>
<!-- Generator: Adobe Illustrator 17.0.2, SVG Export Plug-In . SVG Version: 6.00 Build 0)  -->
<!DOCTYPE svg PUBLIC "-//W3C//DTD SVG 1.1//EN" "http://www.w3.org/Graphics/SVG/1.1/DTD/svg11.dtd">
<svg version="1.1" id="Layer_1" xmlns="http://www.w3.org/2000/svg" xmlns:xlink="http://www.w3.org/1999/xlink" x="0px" y="0px"
	 width="80px" height="42px" viewBox="0 0 80 42" enable-background="new 0 0 80 42" xml:space="preserve">
<g>
	<circle fill-rule="evenodd" clip-rule="evenodd" cx="30.525" cy="32.805" r="2.013"/>
	<circle fill-rule="evenodd" clip-rule="evenodd" cx="49.43" cy="32.805" r="2.013"/>
	<path fill-rule="evenodd" clip-rule="evenodd" d="M21.706,32.56C19.788,35.072,18.599,38,18.253,41h43.144
		c-0.346-3-1.535-5.928-3.453-8.44c-1.977-2.59-4.691-4.756-7.849-6.225l-0.457-0.223l4.359-6.332
		c0.106-0.154,0.095-0.357-0.025-0.44c-0.036-0.025-0.078-0.039-0.125-0.039c-0.108,0-0.22,0.064-0.292,0.169l-4.423,6.42
		l-0.315-0.124c-2.83-1.115-5.856-1.68-8.992-1.68c-3.136,0-6.162,0.565-8.992,1.68l-0.315,0.124l-4.423-6.419
		c-0.072-0.105-0.184-0.17-0.293-0.17c-0.047,0-0.089,0.013-0.125,0.037c-0.12,0.083-0.131,0.283-0.025,0.438l4.359,6.327
		l-0.457,0.233C26.396,27.804,23.682,29.97,21.706,32.56z M49.43,29.94c1.58,0,2.865,1.285,2.865,2.865
		c0,1.58-1.285,2.865-2.865,2.865c-1.58,0-2.865-1.285-2.865-2.865C46.565,31.225,47.85,29.94,49.43,29.94z M30.525,29.94
		c1.58,0,2.865,1.285,2.865,2.865c0,1.58-1.285,2.865-2.865,2.865c-1.58,0-2.865-1.285-2.865-2.865
		C27.66,31.225,28.945,29.94,30.525,29.94z"/>
	<path fill-rule="evenodd" clip-rule="evenodd" d="M79.197,32.701c-0.231-0.488-1.104-0.854-1.871-0.856
		c-1.66-0.006-3.322-0.01-4.982-0.016c-0.625-0.002-1.37-1.223-1.477-1.403c-0.077-0.218-0.156-0.435-0.237-0.651
		c-0.034-0.204-0.25-1.621,0.229-2.025c1.27-1.071,2.539-2.142,3.808-3.214c0.584-0.494,1.019-1.337,0.881-1.858
		c-0.35-1.326-0.712-1.953-1.685-2.92c-0.383-0.38-1.33-0.425-2.051-0.164c-1.562,0.563-3.125,0.9-4.687,1.464
		C66.491,21.286,65.238,20,65.238,20c-0.001,0-0.001,0-0.002,0c-0.136,0-0.274-0.101-0.413-0.264c0-0.001,0.001,0.112,0.001,0.111
		c0,0-0.826-1.362-0.49-1.947c0.827-1.441,1.654-2.852,2.478-4.294c0.381-0.664,0.501-1.591,0.194-2.034
		c-0.782-1.126-1.337-1.584-2.582-2.16c-0.489-0.227-1.396,0.059-1.983,0.55c-1.276,1.063-2.552,2.129-3.826,3.193
		c-0.506,0.422-1.978-0.104-2.053-0.131c-0.19-0.112-0.381-0.223-0.573-0.331c-0.111-0.095-1.244-1.074-1.136-1.707
		c0.284-1.636,0.569-3.272,0.852-4.908c0.129-0.755-0.078-1.68-0.52-1.99c-1.121-0.79-1.802-1.038-3.168-1.154
		c-0.536-0.045-1.293,0.53-1.677,1.192c-0.835,1.436-1.669,2.872-2.504,4.308c-0.323,0.555-1.822,0.577-1.967,0.578
		c-0.215-0.04-0.431-0.077-0.648-0.113c-0.036-0.013-1.543-0.562-1.66-1.219c-0.294-1.635-0.586-3.27-0.881-4.903
		c-0.135-0.754-0.649-1.552-1.168-1.693c-1.324-0.359-2.048-0.359-3.371,0c-0.52,0.141-1.033,0.939-1.168,1.693
		c-0.294,1.634-0.586,3.269-0.879,4.903c-0.119,0.659-1.635,1.21-1.662,1.22c-0.215,0.035-0.429,0.072-0.643,0.112
		c-0.089,0-1.643-0.011-1.973-0.578c-0.835-1.436-1.668-2.872-2.504-4.307c-0.384-0.662-1.141-1.236-1.677-1.192
		c-1.367,0.115-2.046,0.363-3.168,1.153c-0.44,0.31-0.649,1.235-0.518,1.99c0.283,1.636,0.567,3.273,0.85,4.909
		c0.112,0.649-1.08,1.661-1.139,1.711c-0.19,0.108-0.379,0.217-0.567,0.328c-0.052,0.018-1.544,0.557-2.053,0.133
		c-1.276-1.064-2.55-2.128-3.826-3.191c-0.589-0.49-1.495-0.772-1.983-0.546c-1.245,0.576-1.8,1.041-2.584,2.167
		c-0.307,0.442-0.187,1.384,0.194,2.048c0.826,1.441,1.653,2.881,2.478,4.323c0.337,0.586-0.49,2.004-0.49,2.004
		c0.001,0.001,0.001-0.223,0.002-0.222C14.689,19.9,14.552,20,14.417,20c-0.001,0-0.002,0-0.003,0c0,0-1.253,1.287-1.889,1.057
		c-1.562-0.564-3.123-1.015-4.687-1.577c-0.719-0.26-1.666-0.158-2.049,0.221c-0.973,0.967-1.336,1.622-1.686,2.948
		c-0.138,0.521,0.297,1.378,0.882,1.872c1.268,1.072,2.538,2.149,3.808,3.22c0.488,0.413,0.252,1.886,0.226,2.039
		c-0.08,0.212-0.157,0.427-0.232,0.641c-0.099,0.167-0.849,1.406-1.48,1.408c-1.66,0.005-3.322,0.009-4.982,0.015
		c-0.766,0.002-1.64,0.369-1.871,0.856c-0.583,1.241-0.709,1.954-0.586,3.321c0.051,0.537,0.745,1.181,1.465,1.444
		c1.559,0.574,3.117,1.168,4.676,1.741C6.558,39.41,6.84,41,6.906,41h10.485c0.343-3,1.597-6.304,3.637-8.977
		c1.964-2.574,4.624-4.735,7.713-6.254l-3.79-5.507c-0.374-0.544-0.265-1.275,0.243-1.625c0.178-0.123,0.389-0.189,0.608-0.189
		c0.391,0,0.762,0.201,0.994,0.538l4.04,5.864c2.838-1.074,5.86-1.618,8.988-1.618c3.127,0,6.149,0.544,8.988,1.618l4.04-5.864
		c0.232-0.337,0.603-0.538,0.994-0.538c0.22,0,0.43,0.065,0.608,0.187c0.509,0.35,0.618,1.078,0.244,1.622l-3.79,5.502
		c3.09,1.518,5.749,3.691,7.713,6.265C60.662,34.696,61.915,38,62.258,41h10.485c0.064,0,0.348-1.592,0.899-1.795
		c1.559-0.573,3.117-1.154,4.676-1.728c0.719-0.265,1.416-0.914,1.463-1.449C79.906,34.661,79.78,33.943,79.197,32.701z"/>
</g>
</svg>
