<?xml version="1.0" encoding="utf-8"?>
<!-- Generator: Adobe Illustrator 17.0.2, SVG Export Plug-In . SVG Version: 6.00 Build 0)  -->
<!DOCTYPE svg PUBLIC "-//W3C//DTD SVG 1.1//EN" "http://www.w3.org/Graphics/SVG/1.1/DTD/svg11.dtd">
<svg version="1.1" id="Layer_1" xmlns="http://www.w3.org/2000/svg" xmlns:xlink="http://www.w3.org/1999/xlink" x="0px" y="0px"
	 width="310px" height="156px" viewBox="0 0 310 156" enable-background="new 0 0 310 156" xml:space="preserve">
<g>
	<path fill-rule="evenodd" clip-rule="evenodd" fill="#A4C739" d="M120.125,130.44c4.163,0,7.55-3.387,7.55-7.549
		c0-4.163-3.387-7.55-7.55-7.55c-4.163,0-7.549,3.387-7.549,7.55C112.576,127.053,115.962,130.44,120.125,130.44z"/>
	<path fill-rule="evenodd" clip-rule="evenodd" fill="#A4C739" d="M191.018,130.44c4.163,0,7.551-3.387,7.551-7.549
		c0-4.163-3.387-7.55-7.551-7.55c-4.163,0-7.55,3.387-7.55,7.55C183.468,127.053,186.855,130.44,191.018,130.44z"/>
	<path fill-rule="evenodd" clip-rule="evenodd" fill="#A4C739" d="M87.052,121.909c-7.192,9.422-11.648,20.591-12.948,31.591
		h161.791c-1.299-11-5.756-22.169-12.947-31.591c-7.412-9.711-17.59-17.804-29.435-23.314l-1.714-0.821l16.346-23.739
		c0.398-0.579,0.355-1.337-0.095-1.646c-0.135-0.093-0.292-0.143-0.468-0.143c-0.407,0-0.826,0.242-1.096,0.634l-16.586,24.074
		l-1.181-0.465c-10.614-4.181-21.959-6.302-33.721-6.302c-11.761,0-23.106,2.12-33.718,6.301l-1.181,0.465l-16.584-24.073
		c-0.27-0.393-0.691-0.637-1.098-0.637c-0.177,0-0.335,0.047-0.469,0.14c-0.449,0.309-0.492,1.061-0.093,1.641l16.345,23.727
		l-1.714,0.845C104.643,104.105,94.465,112.198,87.052,121.909z M191.018,112.146c5.925,0,10.745,4.82,10.745,10.745
		c0,5.924-4.82,10.744-10.745,10.744c-5.925,0-10.745-4.82-10.745-10.744C180.274,116.966,185.094,112.146,191.018,112.146z
		 M120.125,112.146c5.925,0,10.745,4.82,10.745,10.745c0,5.924-4.82,10.744-10.745,10.744c-5.924,0-10.744-4.82-10.744-10.744
		C109.381,116.966,114.201,112.146,120.125,112.146z"/>
	<path fill-rule="evenodd" clip-rule="evenodd" fill="#A4C739" d="M302.646,122.499c-0.865-1.83-4.139-3.202-7.015-3.208
		c-6.225-0.022-12.457-0.039-18.682-0.059c-2.344-0.008-5.139-4.585-5.539-5.261c-0.288-0.818-0.584-1.632-0.888-2.442
		c-0.127-0.765-0.939-6.079,0.858-7.594c4.761-4.016,9.523-8.031,14.278-12.053c2.191-1.853,3.822-5.015,3.303-6.968
		c-1.314-4.973-2.669-7.322-6.318-10.95c-1.435-1.427-4.986-1.594-7.69-0.617c-5.857,2.11-11.719,4.223-17.576,6.337
		c-2.381,0.857-7.079-3.117-7.079-3.117c-0.002,0-0.004,0.001-0.006,0.002c-0.509-0.618-1.028-1.229-1.549-1.837
		c0.002-0.003,0.003-0.006,0.004-0.009c0,0-3.096-5.319-1.839-7.514c3.101-5.404,6.203-10.803,9.292-16.21
		c1.429-2.49,1.879-6.021,0.726-7.68c-2.934-4.224-5.015-5.967-9.684-8.128c-1.833-0.85-5.234,0.209-7.436,2.048
		c-4.784,3.987-9.569,7.978-14.348,11.965c-1.899,1.581-7.418-0.393-7.697-0.495c-0.712-0.422-1.428-0.837-2.149-1.245
		c-0.416-0.358-4.665-4.029-4.259-6.401c1.067-6.135,2.133-12.271,3.194-18.407c0.484-2.83-0.294-6.301-1.949-7.464
		c-4.202-2.963-6.756-3.894-11.88-4.328c-2.012-0.17-4.848,1.987-6.289,4.469c-3.13,5.384-6.26,10.769-9.39,16.153
		c-1.212,2.083-6.833,2.163-7.376,2.166c-0.807-0.15-1.617-0.29-2.43-0.424c-0.135-0.049-5.786-2.109-6.225-4.572
		c-1.101-6.131-2.196-12.261-3.303-18.387c-0.507-2.827-2.433-5.821-4.381-6.35c-4.963-1.345-7.678-1.345-12.641,0
		c-1.948,0.529-3.874,3.522-4.381,6.35c-1.101,6.129-2.196,12.259-3.297,18.387c-0.446,2.471-6.133,4.537-6.234,4.573
		c-0.806,0.133-1.61,0.272-2.41,0.42c-0.333,0.002-6.161-0.04-7.398-2.166c-3.13-5.384-6.255-10.77-9.39-16.151
		c-1.441-2.481-4.277-4.636-6.289-4.469c-5.125,0.431-7.672,1.362-11.881,4.325c-1.649,1.163-2.433,4.633-1.943,7.463
		c1.06,6.136,2.127,12.272,3.187,18.407c0.422,2.435-4.049,6.228-4.273,6.417c-0.714,0.403-1.422,0.815-2.126,1.232
		c-0.196,0.069-5.792,2.09-7.7,0.498c-4.784-3.99-9.563-7.981-14.348-11.965c-2.209-1.839-5.605-2.895-7.438-2.048
		c-4.669,2.16-6.75,3.905-9.69,8.125c-1.153,1.659-0.703,5.189,0.726,7.68c3.096,5.404,6.197,10.805,9.292,16.21
		c1.262,2.199-1.839,7.517-1.839,7.517c0.002,0.005,0.004,0.008,0.006,0.013c-0.518,0.605-1.034,1.211-1.54,1.826
		c-0.004-0.001-0.007-0.002-0.011-0.003c0,0.006-4.698,3.982-7.084,3.12c-5.857-2.114-11.713-4.23-17.576-6.336
		c-2.698-0.974-6.249-0.804-7.684,0.617c-3.649,3.627-5.009,5.976-6.324,10.949c-0.519,1.953,1.113,5.114,3.309,6.968
		c4.756,4.019,9.517,8.034,14.278,12.05c1.83,1.55,0.944,7.06,0.846,7.634c-0.299,0.795-0.589,1.595-0.872,2.398
		c-0.37,0.626-3.184,5.269-5.548,5.278c-6.225,0.017-12.457,0.032-18.682,0.056c-2.871,0.009-6.151,1.384-7.015,3.211
		c-2.185,4.655-2.657,7.328-2.196,12.452c0.19,2.012,2.796,4.427,5.493,5.416c5.845,2.152,11.69,4.32,17.535,6.467
		c2.06,0.757,3.119,5.66,3.366,6.66h39.319c1.288-11,5.987-23.578,13.638-33.602c7.367-9.651,17.338-17.727,28.924-23.422
		L99.224,75.841c-1.404-2.04-0.995-4.772,0.912-6.087c0.669-0.46,1.458-0.705,2.281-0.705c1.465,0,2.859,0.754,3.729,2.019
		l15.149,21.989c10.644-4.026,21.976-6.066,33.703-6.066c11.727,0,23.06,2.04,33.706,6.066l15.149-21.99
		c0.868-1.264,2.262-2.019,3.728-2.019c0.824,0,1.612,0.243,2.28,0.703c1.908,1.313,2.319,4.042,0.914,6.083l-14.213,20.631
		c11.586,5.694,21.558,13.782,28.924,23.433c7.651,10.024,12.35,22.602,13.637,33.602h39.318c0.241-1,1.304-5.911,3.37-6.672
		c5.845-2.149,11.69-4.299,17.535-6.45c2.698-0.993,5.309-3.411,5.488-5.42C305.303,129.834,304.83,127.157,302.646,122.499z"/>
</g>
</svg>
